<?xml version="1.0" encoding="utf-8"?>
<!-- Generator: Adobe Illustrator 24.1.1, SVG Export Plug-In . SVG Version: 6.00 Build 0)  -->
<svg version="1.1" id="Layer_1" xmlns="http://www.w3.org/2000/svg" xmlns:xlink="http://www.w3.org/1999/xlink" x="0px" y="0px"
	 viewBox="0 0 1000 1000" style="enable-background:new 0 0 1000 1000;" xml:space="preserve">
<style type="text/css">
	.st0{fill:#424242;}
</style>
<path class="st0" d="M451.39,27c13.58,1.84,27.25,3.18,40.73,5.59C630.75,57.37,730.89,133.41,791.6,260.23
	c30.8,64.34,41.49,132.9,34.31,203.88c-5.01,49.45-19.34,96.47-40.98,141.16c-3.3,6.82-2.32,10.54,2.81,15.63
	c48.28,47.9,96.4,95.97,144.36,144.19c41.09,41.31,47.2,105.51,14.95,153.49c-39.45,58.68-120.73,66.57-172.77,15.79
	c-50.21-48.99-99.52-98.91-148.86-148.79c-6.26-6.33-10.89-6.82-18.7-3.12c-59.77,28.33-122.52,43.51-189.03,42.14
	c-162.38-3.34-314.24-112.25-364.15-266.72C1.13,395.66,36.78,252.46,159.29,133.42C220.35,74.1,295.51,41.23,380.16,30.69
	c9.05-1.13,18.07-2.45,27.1-3.69C421.97,27,436.68,27,451.39,27z M428.79,731.5c169.57,0.15,305.78-135.53,306.06-304.87
	c0.28-169.31-135.71-305.84-304.92-306.13c-169.22-0.29-305.85,135.85-306.09,304.99C123.6,594.87,259.6,731.35,428.79,731.5z"/>
</svg>
