<?xml version="1.0" encoding="utf-8"?>
<!-- Generator: Adobe Illustrator 24.1.1, SVG Export Plug-In . SVG Version: 6.00 Build 0)  -->
<svg version="1.1" id="Layer_1" xmlns="http://www.w3.org/2000/svg" xmlns:xlink="http://www.w3.org/1999/xlink" x="0px" y="0px"
	 viewBox="0 0 1000 1000" style="enable-background:new 0 0 1000 1000;" xml:space="preserve">
<style type="text/css">
	.st0{fill:#424242;}
</style>
<path class="st0" d="M18,351.93c2.58-16.35,4.14-32.93,7.92-49c24.08-102.46,82.13-176.26,184.59-208.15
	c104.22-32.44,205.74,1.24,276.12,87.64c4.15,5.09,8.18,10.28,13.17,16.56c2.43-2.93,4.57-5.36,6.55-7.9
	c40-51.28,89.47-88.79,154.18-102.3c115.87-24.19,232.16,30.84,285.43,136.94c52.71,104.96,47.19,209.35-10.68,310.98
	c-33.42,58.7-78.46,108.31-128.36,152.95c-89.07,79.68-179.68,157.64-269.91,236.02c-22.2,19.29-52.02,19.22-73.97,0.12
	C372.64,847.16,281.79,769,192.47,689.13c-49.44-44.22-93.63-93.6-127.34-151.4c-25.12-43.07-41.66-88.96-45.38-139.04
	c-0.18-2.44-1.15-4.82-1.75-7.23C18,378.29,18,365.11,18,351.93z M925.88,372.61c-0.56-58.46-15.96-112.01-53.16-158.1
	c-64.97-80.49-180.53-99.72-264.78-44.05c-31.99,21.14-56.18,49.67-76.33,81.98c-16.46,26.39-46.22,26.07-63.45,0.18
	c-9.88-14.84-20.2-29.55-31.82-43.03c-94.34-109.43-250.3-84.4-318.45,17.82c-55.12,82.68-58.27,170.82-16.55,260.19
	c25.15,53.89,64.46,97.69,106.3,139.08c90.87,89.91,191.5,168.8,287.1,253.37c4.53,4.01,7.22,2.7,11.02-0.6
	c78.2-67.81,156.97-134.98,234.56-203.48c48.01-42.38,93.43-87.53,130.21-140.48C904.55,486.53,926.18,433.32,925.88,372.61z"/>
</svg>
