<?xml version="1.0" encoding="utf-8"?>
<!-- Generator: Adobe Illustrator 24.1.1, SVG Export Plug-In . SVG Version: 6.00 Build 0)  -->
<svg version="1.1" id="Layer_1" xmlns="http://www.w3.org/2000/svg" xmlns:xlink="http://www.w3.org/1999/xlink" x="0px" y="0px"
	 viewBox="0 0 1000 1000" style="enable-background:new 0 0 1000 1000;" xml:space="preserve">
<style type="text/css">
	.st0{fill:#424242;}
</style>
<g>
	<path class="st0" d="M48.59,181.46h66.91l39.64,515.28c0,0,7.71,81.95,68.79,89.58l169.03,29.33h237.82h19.82l99.09-79.27H293.86
		c0,0-54.67-3.51-59.46-59.46l0,0L868.6,657.1l110.74-350.66c6.45-20.44-6.46-42.98-27.75-45.48c-1.23-0.15-2.47-0.22-3.71-0.22
		h-753.1L178.4,146.15c-1.98-13.86-13.85-24.15-27.85-24.15H43.69C10.12,122,10.12,181.46,48.59,181.46z"/>
	<circle class="st0" cx="293.86" cy="855.28" r="118.91"/>
	<circle class="st0" cx="749.69" cy="855.28" r="118.91"/>
</g>
</svg>
