<?xml version="1.0" encoding="utf-8"?>
<!-- Generator: Adobe Illustrator 24.1.1, SVG Export Plug-In . SVG Version: 6.00 Build 0)  -->
<svg version="1.1" id="Layer_1" xmlns="http://www.w3.org/2000/svg" xmlns:xlink="http://www.w3.org/1999/xlink" x="0px" y="0px"
	 viewBox="0 0 1000 1000" style="enable-background:new 0 0 1000 1000;" xml:space="preserve">
<style type="text/css">
	.st0{fill:#424242;}
</style>
<g>
	<path class="st0" d="M82.5,979c0.11-68.54-0.08-137.08,0.44-205.62c0.31-41.09,16.76-74.58,50.79-98.32
		c13.95-9.74,28.58-18.61,43.4-26.98c78.21-44.14,162.24-70.93,251.42-79.79c155.16-15.4,299.3,17.4,430.82,102.45
		c38.02,24.58,56.7,59.62,56.89,104.5c0.27,64.2,0.06,128.41,0.08,192.61c0,3.72,0.2,7.43,0.31,11.15
		C638.61,979,360.56,979,82.5,979z"/>
	<path class="st0" d="M500.22,26C631.42,26.42,738,133.57,737.58,264.62c-0.42,131.18-107.59,237.78-238.63,237.37
		c-131.12-0.42-237.75-107.62-237.36-238.64C261.97,132.25,369.22,25.58,500.22,26z"/>
</g>
</svg>
